<?xml version="1.0" standalone="no"?>
<!DOCTYPE svg PUBLIC "-//W3C//DTD SVG 20010904//EN"
 "http://www.w3.org/TR/2001/REC-SVG-20010904/DTD/svg10.dtd">
<svg version="1.0" xmlns="http://www.w3.org/2000/svg"
 width="213.000000pt" height="213.000000pt" viewBox="0 0 213.000000 213.000000"
 preserveAspectRatio="xMidYMid meet">

<g transform="translate(0.000000,213.000000) scale(0.100000,-0.100000)"
fill="#000000" stroke="none">
<path d="M905 1935 c-161 -36 -309 -114 -427 -224 -192 -180 -291 -404 -291
-661 0 -185 47 -345 145 -495 161 -245 413 -390 713 -411 89 -6 269 16 288 35
4 4 -25 13 -65 20 -103 19 -250 66 -342 112 -337 167 -469 437 -341 695 106
215 379 376 730 430 121 19 400 13 514 -10 41 -9 76 -14 79 -12 18 18 -106
201 -190 282 -126 121 -292 209 -456 240 -90 17 -276 17 -357 -1z"/>
<path d="M1375 1309 c-291 -39 -526 -173 -611 -346 -26 -51 -29 -69 -29 -153
0 -123 21 -167 124 -270 58 -58 96 -85 161 -117 161 -79 309 -113 489 -113
l107 0 67 56 c37 30 67 60 67 65 0 6 -23 7 -62 2 -99 -13 -276 -7 -353 11
-156 37 -290 112 -356 199 -43 58 -59 105 -59 179 0 147 154 287 385 350 65
17 108 21 230 21 170 0 254 -17 383 -78 l72 -34 0 28 c0 16 -3 50 -7 76 -6 45
-9 49 -51 67 -112 50 -397 79 -557 57z"/>
<path d="M1435 1074 c-88 -21 -116 -30 -158 -51 -58 -29 -123 -86 -144 -127
-20 -39 -20 -123 0 -161 62 -118 238 -192 432 -182 227 12 385 120 385 262 0
145 -161 252 -390 260 -58 2 -114 2 -125 -1z m245 -142 c58 -28 100 -78 100
-117 0 -30 -38 -85 -78 -112 -135 -90 -402 -20 -402 107 0 71 58 124 160 147
74 16 154 7 220 -25z"/>
</g>
</svg>
